<?xml version="1.0" standalone="no"?>
<!DOCTYPE svg PUBLIC "-//W3C//DTD SVG 20010904//EN"
 "http://www.w3.org/TR/2001/REC-SVG-20010904/DTD/svg10.dtd">
<svg version="1.0" xmlns="http://www.w3.org/2000/svg"
 width="512.000000pt" height="512.000000pt" viewBox="0 0 512.000000 512.000000"
 preserveAspectRatio="xMidYMid meet">
<metadata>
Created by potrace 1.16, written by Peter Selinger 2001-2019
</metadata>
<g transform="translate(0.000000,512.000000) scale(0.100000,-0.100000)"
fill="#000000" stroke="none">
<path d="M2375 5034 c-16 -2 -73 -9 -125 -15 -336 -38 -693 -165 -998 -353
-117 -73 -131 -85 -138 -123 -5 -27 -1 -37 25 -64 40 -39 68 -36 149 19 479
325 1114 452 1702 341 249 -48 510 -143 712 -260 73 -42 238 -149 238 -154 0
-2 -28 0 -63 2 -60 5 -65 4 -85 -22 -28 -35 -28 -67 1 -100 20 -23 42 -29 228
-62 125 -22 216 -33 233 -29 18 4 32 18 42 41 14 33 12 41 -57 232 -39 109
-77 205 -85 214 -21 23 -57 28 -93 13 -44 -18 -50 -54 -25 -142 5 -18 -9 -12
-87 42 -301 204 -662 344 -1039 401 -99 15 -469 28 -535 19z"/>
<path d="M753 4254 c-17 -7 -140 -155 -207 -248 -64 -89 -72 -128 -33 -164 26
-24 74 -29 99 -9 9 6 40 46 69 87 30 41 84 110 121 153 75 87 87 128 48 167
-19 19 -67 26 -97 14z"/>
<path d="M1736 4250 c-61 -19 -106 -87 -106 -162 l0 -28 -82 -1 c-99 0 -144
-14 -172 -52 -19 -26 -21 -44 -24 -219 -4 -215 1 -271 29 -299 23 -23 77 -25
105 -5 17 13 19 31 24 213 l5 198 58 3 57 3 0 -209 c0 -216 7 -264 40 -282 27
-14 73 -12 96 4 18 14 19 32 24 348 l5 333 808 3 807 2 0 -194 c0 -122 4 -204
11 -219 19 -41 48 -47 234 -47 l175 0 0 -1100 0 -1100 -1020 0 -1020 0 0 25
c0 51 -68 83 -120 55 -41 -22 -48 -122 -13 -178 8 -13 28 -32 46 -42 31 -19
58 -20 990 -20 l957 0 0 -50 0 -50 -1067 2 -1068 3 -3 115 c-2 101 -5 117 -24
137 -27 29 -76 30 -105 3 -28 -26 -36 -82 -32 -223 4 -128 17 -159 74 -183 51
-21 2269 -21 2319 0 55 23 66 48 66 153 l0 93 38 0 c50 0 101 29 124 71 17 32
18 90 18 1217 l0 1183 -43 47 c-307 335 -405 439 -426 449 -31 14 -1737 17
-1785 3z m1982 -441 c2 -5 -30 -9 -72 -9 l-76 0 0 86 0 86 73 -77 c39 -43 74
-82 75 -86z"/>
<path d="M318 3601 c-32 -37 -128 -290 -128 -335 0 -49 29 -80 74 -80 48 0 68
23 96 109 13 39 38 106 57 150 41 98 43 136 7 164 -38 30 -77 27 -106 -8z"/>
<path d="M1981 3414 c-28 -35 -26 -67 3 -101 l24 -28 184 -3 c213 -4 253 3
273 50 15 37 3 83 -25 98 -11 6 -111 10 -229 10 l-210 0 -20 -26z"/>
<path d="M2599 3421 c-31 -25 -32 -83 -1 -114 22 -21 28 -22 258 -22 l236 0
24 28 c29 34 31 66 3 101 l-20 26 -239 0 c-217 0 -240 -2 -261 -19z"/>
<path d="M1239 3315 c-215 -41 -392 -145 -525 -310 -394 -489 -154 -1212 458
-1377 106 -29 307 -31 408 -4 81 21 179 61 245 99 188 110 336 309 396 532 30
113 30 307 0 420 -68 253 -239 459 -474 570 -150 71 -354 99 -508 70z m322
-170 c242 -63 438 -259 505 -505 23 -88 23 -262 0 -350 -127 -470 -670 -677
-1071 -409 -132 89 -231 220 -282 374 -23 70 -26 96 -26 210 0 114 3 140 26
210 37 113 90 198 177 285 110 109 231 173 381 199 72 13 211 6 290 -14z"/>
<path d="M1609 2723 c-25 -27 -108 -119 -184 -206 l-138 -158 -82 81 c-84 81
-109 93 -160 74 -22 -9 -43 -59 -37 -89 2 -13 59 -77 126 -144 103 -101 128
-121 153 -121 17 0 40 8 52 18 11 9 110 121 220 247 182 209 201 233 201 267
0 28 -6 42 -26 57 -43 34 -74 27 -125 -26z"/>
<path d="M4852 3210 c-42 -18 -47 -49 -23 -167 11 -59 24 -128 27 -153 9 -69
24 -109 44 -120 33 -18 75 -11 100 15 21 23 22 30 17 99 -7 80 -40 243 -58
287 -10 25 -47 50 -72 48 -7 0 -22 -4 -35 -9z"/>
<path d="M2214 3050 c-28 -11 -54 -48 -54 -76 0 -12 9 -33 21 -48 l20 -26 354
0 354 0 20 26 c28 35 26 67 -3 101 l-24 28 -334 2 c-183 1 -343 -2 -354 -7z"/>
<path d="M3095 3049 c-49 -28 -61 -93 -25 -129 19 -19 33 -20 254 -20 214 0
236 2 257 19 31 25 32 83 1 114 -22 21 -30 22 -245 24 -150 2 -228 -1 -242 -8z"/>
<path d="M148 2985 c-18 -10 -31 -28 -37 -53 -11 -41 -31 -234 -31 -294 0 -73
76 -114 131 -70 20 17 24 34 36 158 21 214 21 221 -2 243 -28 27 -65 33 -97
16z"/>
<path d="M2323 2660 c-47 -19 -57 -87 -18 -125 l24 -25 590 0 c324 0 597 3
606 6 18 7 45 55 45 79 0 9 -13 30 -29 46 l-29 29 -584 -1 c-321 0 -593 -4
-605 -9z"/>
<path d="M4907 2548 c-20 -20 -25 -41 -37 -173 -17 -188 -17 -201 4 -224 44
-48 118 -28 135 37 11 41 31 234 31 294 0 76 -83 116 -133 66z"/>
<path d="M120 2335 c-21 -23 -22 -30 -17 -99 7 -80 40 -243 58 -288 22 -53
104 -60 136 -11 14 21 15 33 4 86 -7 34 -21 113 -31 174 -11 62 -24 121 -29
132 -21 39 -87 43 -121 6z"/>
<path d="M2283 2268 c-27 -13 -47 -59 -38 -88 4 -11 16 -30 28 -40 20 -19 38
-20 623 -20 593 0 602 0 628 21 20 16 26 29 26 59 0 30 -6 43 -26 59 -26 21
-34 21 -623 20 -396 0 -603 -4 -618 -11z"/>
<path d="M4825 1931 c-30 -13 -40 -28 -65 -106 -13 -38 -38 -106 -57 -150 -41
-98 -43 -136 -7 -164 38 -30 77 -27 106 8 32 37 128 290 128 335 0 58 -54 98
-105 77z"/>
<path d="M2085 1865 c-44 -43 -22 -115 38 -130 12 -3 318 -4 680 -3 l659 3 19
24 c26 32 24 77 -6 106 l-24 25 -671 0 -671 0 -24 -25z"/>
<path d="M4508 1288 c-9 -7 -40 -47 -69 -88 -30 -41 -84 -110 -121 -153 -55
-64 -68 -85 -68 -113 0 -57 55 -90 114 -68 20 8 137 146 210 248 64 89 72 128
33 164 -26 24 -74 29 -99 10z"/>
<path d="M847 898 c-9 -7 -21 -25 -26 -41 -9 -23 0 -56 60 -225 39 -108 77
-204 85 -213 21 -23 57 -28 93 -13 44 18 50 54 25 141 -5 18 15 8 102 -51 294
-196 663 -336 1029 -392 147 -23 512 -26 650 -6 381 55 698 168 1004 357 116
71 130 84 137 122 5 27 1 37 -25 64 -41 41 -63 36 -172 -34 -770 -499 -1768
-487 -2546 31 -46 30 -83 56 -83 57 0 2 28 0 63 -2 60 -5 65 -4 85 22 28 35
28 67 0 100 -21 22 -44 29 -218 60 -216 39 -239 41 -263 23z"/>
</g>
</svg>
